<svg width="32" height="32" viewBox="0 0 32 32" fill="none" xmlns="http://www.w3.org/2000/svg">
<g clip-path="url(#clip0_29_30)">
<path d="M25.1429 0H6.85714C3.07005 0 0 3.07005 0 6.85714V25.1429C0 28.93 3.07005 32 6.85714 32H25.1429C28.93 32 32 28.93 32 25.1429V6.85714C32 3.07005 28.93 0 25.1429 0Z" fill="#E8F5EE"/>
<path d="M8.79999 11.2L16 23.2" stroke="#16A662" stroke-width="4" stroke-linecap="round"/>
<path d="M23.2 11.2L16 23.2" stroke="#16A662" stroke-width="4" stroke-linecap="round"/>
<path d="M15.95 24.8C16.9441 24.8 17.75 23.9941 17.75 23C17.75 22.0059 16.9441 21.2 15.95 21.2C14.9559 21.2 14.15 22.0059 14.15 23C14.15 23.9941 14.9559 24.8 15.95 24.8Z" fill="#F59E0B"/>
</g>
<defs>
<clipPath id="clip0_29_30">
<rect width="32" height="32" fill="white"/>
</clipPath>
</defs>
</svg>
