<svg width="104" height="32" viewBox="0 0 104 32" fill="none" xmlns="http://www.w3.org/2000/svg">
<g clip-path="url(#clip0_28_21)">
<g clip-path="url(#clip1_28_21)">
<path d="M25.1429 0H6.85714C3.07005 0 0 3.07005 0 6.85714V25.1429C0 28.93 3.07005 32 6.85714 32H25.1429C28.93 32 32 28.93 32 25.1429V6.85714C32 3.07005 28.93 0 25.1429 0Z" fill="#E8F5EE"/>
<path d="M9 10L16.2 22" stroke="#16A662" stroke-width="4" stroke-linecap="round"/>
<path d="M23.4 10L16.2 22" stroke="#16A662" stroke-width="4" stroke-linecap="round"/>
<path d="M16.15 23.6C17.1441 23.6 17.95 22.7941 17.95 21.8C17.95 20.8059 17.1441 20 16.15 20C15.1559 20 14.35 20.8059 14.35 21.8C14.35 22.7941 15.1559 23.6 16.15 23.6Z" fill="#F59E0B"/>
</g>
<path d="M41.04 21.5L36.198 8.09H38.088L42.192 19.88H41.814L45.918 8.09H47.808L42.984 21.5H41.04ZM52.8694 21.716C51.9334 21.716 51.0994 21.494 50.3674 21.05C49.6354 20.606 49.0594 20 48.6394 19.232C48.2194 18.452 48.0094 17.582 48.0094 16.622C48.0094 15.65 48.2134 14.786 48.6214 14.03C49.0414 13.274 49.6054 12.68 50.3134 12.248C51.0334 11.804 51.8374 11.582 52.7254 11.582C53.4454 11.582 54.0814 11.714 54.6334 11.978C55.1974 12.23 55.6714 12.578 56.0554 13.022C56.4514 13.454 56.7514 13.952 56.9554 14.516C57.1714 15.068 57.2794 15.644 57.2794 16.244C57.2794 16.376 57.2674 16.526 57.2434 16.694C57.2314 16.85 57.2134 17 57.1894 17.144H49.2334V15.704H56.2174L55.4254 16.352C55.5334 15.728 55.4734 15.17 55.2454 14.678C55.0174 14.186 54.6814 13.796 54.2374 13.508C53.7934 13.22 53.2894 13.076 52.7254 13.076C52.1614 13.076 51.6454 13.22 51.1774 13.508C50.7094 13.796 50.3434 14.21 50.0794 14.75C49.8274 15.278 49.7254 15.908 49.7734 16.64C49.7254 17.348 49.8334 17.972 50.0974 18.512C50.3734 19.04 50.7574 19.454 51.2494 19.754C51.7534 20.042 52.2994 20.186 52.8874 20.186C53.5354 20.186 54.0814 20.036 54.5254 19.736C54.9694 19.436 55.3294 19.052 55.6054 18.584L57.0094 19.304C56.8174 19.748 56.5174 20.156 56.1094 20.528C55.7134 20.888 55.2394 21.176 54.6874 21.392C54.1474 21.608 53.5414 21.716 52.8694 21.716ZM59.462 21.5V11.798H61.1V13.58L60.92 13.328C61.148 12.776 61.496 12.368 61.964 12.104C62.432 11.828 63.002 11.69 63.674 11.69H64.268V13.274H63.422C62.738 13.274 62.186 13.49 61.766 13.922C61.346 14.342 61.136 14.942 61.136 15.722V21.5H59.462ZM65.755 21.5V11.798H67.429V21.5H65.755ZM65.755 10.25V8.09H67.429V10.25H65.755ZM71.0525 21.5V13.4H69.1985V11.798H71.0525V11.114C71.0525 10.418 71.2025 9.83 71.5025 9.35C71.8145 8.87 72.2225 8.504 72.7265 8.252C73.2425 8 73.8125 7.874 74.4365 7.874C74.5685 7.874 74.7125 7.886 74.8685 7.91C75.0365 7.922 75.1745 7.94 75.2825 7.964V9.458C75.1865 9.434 75.0725 9.422 74.9405 9.422C74.8085 9.41 74.7065 9.404 74.6345 9.404C74.0825 9.404 73.6265 9.536 73.2665 9.8C72.9185 10.064 72.7445 10.502 72.7445 11.114V11.798H75.0485V13.4H72.7445V21.5H71.0525ZM77.7028 25.46C77.4868 25.46 77.2708 25.442 77.0548 25.406C76.8388 25.37 76.6348 25.31 76.4428 25.226V23.732C76.5748 23.756 76.7368 23.78 76.9288 23.804C77.1328 23.84 77.3308 23.858 77.5228 23.858C78.0868 23.858 78.5128 23.732 78.8008 23.48C79.1008 23.24 79.3828 22.82 79.6468 22.22L80.2588 20.762L80.2228 22.22L76.0828 11.798H77.9008L81.1228 20.078H80.5828L83.7868 11.798H85.6408L81.2668 22.652C81.0628 23.168 80.7988 23.636 80.4748 24.056C80.1628 24.488 79.7788 24.83 79.3228 25.082C78.8668 25.334 78.3268 25.46 77.7028 25.46Z" fill="#16A662"/>
<path d="M86.913 20V11.805H87.815L92.523 18.427L92.116 18.471V11.805H93.205V20H92.303L87.617 13.334L87.991 13.29V20H86.913ZM98.8181 20.132C98.2388 20.132 97.7034 20.0293 97.2121 19.824C96.7208 19.6113 96.2954 19.3143 95.9361 18.933C95.5768 18.5517 95.2944 18.1043 95.0891 17.591C94.8911 17.0777 94.7921 16.5167 94.7921 15.908C94.7921 15.292 94.8911 14.7273 95.0891 14.214C95.2871 13.7007 95.5658 13.2533 95.9251 12.872C96.2844 12.4907 96.7098 12.1973 97.2011 11.992C97.6924 11.7793 98.2278 11.673 98.8071 11.673C99.3718 11.673 99.8778 11.772 100.325 11.97C100.78 12.168 101.161 12.4247 101.469 12.74C101.784 13.0553 102.008 13.3927 102.14 13.752L101.172 14.225C100.981 13.7483 100.684 13.3707 100.281 13.092C99.8778 12.8133 99.3864 12.674 98.8071 12.674C98.2351 12.674 97.7254 12.8097 97.2781 13.081C96.8381 13.3523 96.4934 13.73 96.2441 14.214C95.9948 14.698 95.8701 15.2627 95.8701 15.908C95.8701 16.546 95.9948 17.107 96.2441 17.591C96.5008 18.075 96.8491 18.4527 97.2891 18.724C97.7364 18.9953 98.2461 19.131 98.8181 19.131C99.3168 19.131 99.7678 19.0247 100.171 18.812C100.574 18.5993 100.893 18.306 101.128 17.932C101.363 17.558 101.48 17.1253 101.48 16.634V16.128L101.975 16.59H98.8071V15.655H102.569V16.381C102.569 16.953 102.47 17.47 102.272 17.932C102.074 18.394 101.803 18.79 101.458 19.12C101.113 19.4427 100.714 19.692 100.259 19.868C99.8044 20.044 99.3241 20.132 98.8181 20.132Z" fill="#F59E0B"/>
</g>
<defs>
<clipPath id="clip0_28_21">
<rect width="104" height="32" fill="white"/>
</clipPath>
<clipPath id="clip1_28_21">
<rect width="32" height="32" fill="white"/>
</clipPath>
</defs>
</svg>
